<svg width="195" height="102" viewBox="0 0 195 102" fill="none" xmlns="http://www.w3.org/2000/svg">
<g filter="url(#filter0_d_32_1214)">
<path d="M45.2798 57H40.6662L47.696 36.6364H53.2443L60.2642 57H55.6506L50.5497 41.2898H50.3906L45.2798 57ZM44.9915 48.9957H55.8892V52.3565H44.9915V48.9957ZM66.8714 48.1705V57H62.6357V41.7273H66.6726V44.4219H66.8516C67.1896 43.5336 67.7564 42.831 68.5518 42.3139C69.3473 41.7902 70.3118 41.5284 71.4453 41.5284C72.5059 41.5284 73.4306 41.7604 74.2195 42.2244C75.0083 42.6884 75.6214 43.3513 76.0589 44.2131C76.4964 45.0682 76.7152 46.089 76.7152 47.2756V57H72.4794V48.0312C72.486 47.0966 72.2474 46.3674 71.7635 45.8438C71.2796 45.3134 70.6134 45.0483 69.7649 45.0483C69.1948 45.0483 68.6911 45.1709 68.2536 45.4162C67.8227 45.6615 67.4846 46.0194 67.2393 46.4901C67.0007 46.9541 66.8781 47.5142 66.8714 48.1705ZM89.8477 50.4972V41.7273H94.0835V57H90.0167V54.2259H89.8576C89.5129 55.1207 88.9395 55.84 88.1374 56.3835C87.342 56.9271 86.3709 57.1989 85.2241 57.1989C84.2032 57.1989 83.305 56.9669 82.5295 56.5028C81.7539 56.0388 81.1474 55.3793 80.7099 54.5241C80.279 53.669 80.0603 52.6449 80.0536 51.4517V41.7273H84.2894V50.696C84.296 51.5975 84.538 52.3101 85.0153 52.8338C85.4925 53.3575 86.1322 53.6193 86.9343 53.6193C87.4447 53.6193 87.922 53.5033 88.3661 53.2713C88.8103 53.0327 89.1682 52.6813 89.44 52.2173C89.7184 51.7533 89.8543 51.1799 89.8477 50.4972ZM97.5511 57V36.6364H101.857V45.6151H102.125L109.453 36.6364H114.614L107.057 45.7543L114.703 57H109.553L103.974 48.6278L101.857 51.2131V57H97.5511ZM122.556 57.2983C121.011 57.2983 119.676 56.9702 118.549 56.3139C117.428 55.651 116.563 54.7296 115.953 53.5497C115.344 52.3632 115.039 50.9877 115.039 49.4233C115.039 47.8456 115.344 46.4669 115.953 45.2869C116.563 44.1004 117.428 43.179 118.549 42.5227C119.676 41.8598 121.011 41.5284 122.556 41.5284C124.1 41.5284 125.433 41.8598 126.553 42.5227C127.68 43.179 128.548 44.1004 129.158 45.2869C129.768 46.4669 130.073 47.8456 130.073 49.4233C130.073 50.9877 129.768 52.3632 129.158 53.5497C128.548 54.7296 127.68 55.651 126.553 56.3139C125.433 56.9702 124.1 57.2983 122.556 57.2983ZM122.576 54.017C123.278 54.017 123.865 53.8182 124.336 53.4205C124.806 53.0161 125.161 52.4659 125.4 51.7699C125.645 51.0739 125.767 50.2817 125.767 49.3935C125.767 48.5052 125.645 47.7131 125.4 47.017C125.161 46.321 124.806 45.7708 124.336 45.3665C123.865 44.9621 123.278 44.7599 122.576 44.7599C121.866 44.7599 121.27 44.9621 120.786 45.3665C120.309 45.7708 119.947 46.321 119.702 47.017C119.463 47.7131 119.344 48.5052 119.344 49.3935C119.344 50.2817 119.463 51.0739 119.702 51.7699C119.947 52.4659 120.309 53.0161 120.786 53.4205C121.27 53.8182 121.866 54.017 122.576 54.017ZM139.728 57.2983C138.183 57.2983 136.847 56.9702 135.721 56.3139C134.6 55.651 133.735 54.7296 133.125 53.5497C132.516 52.3632 132.211 50.9877 132.211 49.4233C132.211 47.8456 132.516 46.4669 133.125 45.2869C133.735 44.1004 134.6 43.179 135.721 42.5227C136.847 41.8598 138.183 41.5284 139.728 41.5284C141.272 41.5284 142.605 41.8598 143.725 42.5227C144.852 43.179 145.72 44.1004 146.33 45.2869C146.94 46.4669 147.245 47.8456 147.245 49.4233C147.245 50.9877 146.94 52.3632 146.33 53.5497C145.72 54.7296 144.852 55.651 143.725 56.3139C142.605 56.9702 141.272 57.2983 139.728 57.2983ZM139.748 54.017C140.45 54.017 141.037 53.8182 141.507 53.4205C141.978 53.0161 142.333 52.4659 142.571 51.7699C142.817 51.0739 142.939 50.2817 142.939 49.3935C142.939 48.5052 142.817 47.7131 142.571 47.017C142.333 46.321 141.978 45.7708 141.507 45.3665C141.037 44.9621 140.45 44.7599 139.748 44.7599C139.038 44.7599 138.442 44.9621 137.958 45.3665C137.48 45.7708 137.119 46.321 136.874 47.017C136.635 47.7131 136.516 48.5052 136.516 49.3935C136.516 50.2817 136.635 51.0739 136.874 51.7699C137.119 52.4659 137.48 53.0161 137.958 53.4205C138.442 53.8182 139.038 54.017 139.748 54.017ZM154.235 36.6364V57H149.999V36.6364H154.235Z" fill="#909090"/>
</g>
<defs>
<filter id="filter0_d_32_1214" x="0.666016" y="0.636475" width="193.568" height="100.662" filterUnits="userSpaceOnUse" color-interpolation-filters="sRGB">
<feFlood flood-opacity="0" result="BackgroundImageFix"/>
<feColorMatrix in="SourceAlpha" type="matrix" values="0 0 0 0 0 0 0 0 0 0 0 0 0 0 0 0 0 0 127 0" result="hardAlpha"/>
<feOffset dy="4"/>
<feGaussianBlur stdDeviation="20"/>
<feComposite in2="hardAlpha" operator="out"/>
<feColorMatrix type="matrix" values="0 0 0 0 1 0 0 0 0 0.313726 0 0 0 0 0.576471 0 0 0 0.28 0"/>
<feBlend mode="normal" in2="BackgroundImageFix" result="effect1_dropShadow_32_1214"/>
<feBlend mode="normal" in="SourceGraphic" in2="effect1_dropShadow_32_1214" result="shape"/>
</filter>
</defs>
</svg>
